<svg xmlns="http://www.w3.org/2000/svg" viewBox="0 0 1200 800">
  <rect width="1200" height="800" fill="#006C35"/>
  <g transform="translate(600, 400)">
    <path d="M-200,-40 C-200,-40 -160,-40 -160,-40 L-160,-80 L-120,-80 L-120,-40 L-80,-40 L-80,-80 L-40,-80 L-40,-40 L0,-40 L0,-80 L40,-80 L40,-40 L200,-40 C200,-40 200,0 200,0 L-200,0 Z" fill="#FFFFFF"/>
    <path d="M-200,40 C-200,40 -160,40 -160,40 L-160,80 L-120,80 L-120,40 L-80,40 L-80,80 L-40,80 L-40,40 L0,40 L0,80 L40,80 L40,40 L200,40 C200,40 200,0 200,0 L-200,0 Z" fill="#FFFFFF"/>
  </g>
</svg>
